<?xml version="1.0" ?><svg id="Layer_1" style="enable-background:new 0 0 128 128;" version="1.1" viewBox="0 0 128 128" xml:space="preserve" xmlns="http://www.w3.org/2000/svg" xmlns:xlink="http://www.w3.org/1999/xlink"><style type="text/css">
	.st0{fill:#FFFFFF;}
	.st1{fill:#E4E4E7;}
	.st2{fill:none;stroke:#444B54;stroke-width:6;stroke-linecap:round;stroke-linejoin:round;stroke-miterlimit:10;}
	.st3{fill:#AFAFBC;}
	.st4{fill:#EAD063;}
	.st5{fill:#242426;}
	.st6{fill:#F9DED4;}
	.st7{fill:#D8AC9E;}
	.st8{fill:#FFD0FF;}
	.st9{fill:#6575C1;}
	.st10{fill:#786F74;}
	.st11{fill:#9B9BA5;}
	.st12{fill:#FFD2EA;}
	.st13{fill:#B78BA4;}
	.st14{fill:#444B54;}
	.st15{fill:#5D5D8C;}
	.st16{fill:none;stroke:#FFFFFF;stroke-width:6;stroke-linecap:round;stroke-linejoin:round;stroke-miterlimit:10;}
</style><g><path class="st0" d="M4,107.8C21.3,96.5,41.9,90,64,90c22.1,0,42.7,6.5,60,17.8v0c0,9-7.3,16.2-16.2,16.2H20.2   C11.3,124,4,116.7,4,107.8L4,107.8z"/></g><g><circle class="st1" cx="59" cy="107" r="6"/></g><g><circle class="st1" cx="93" cy="115" r="9"/></g><g><g><rect class="st0" height="56" width="90" x="34" y="4"/></g><g><g><rect class="st8" height="6" width="93" x="31" y="43"/></g></g><g><g><rect class="st8" height="6" width="48" x="76" y="15"/></g></g><g><g><rect class="st8" height="6" width="48" x="76" y="29"/></g></g><g><path class="st9" d="M79,4v28c0,1.7-1.3,3-3,3H34V4H79z"/></g><path class="st14" d="M124,1H34c-1.7,0-3,1.3-3,3v109c0,1.7,1.3,3,3,3s3-1.3,3-3V63h87c1.7,0,3-1.3,3-3V4C127,2.3,125.7,1,124,1z    M121,57H37V7h84V57z"/></g><g><path class="st14" d="M124,110.8c-0.6,0-1.1-0.2-1.6-0.5C105,99,84.8,93,64,93c-5.3,0-10.6,0.4-15.8,1.2c-1.6,0.2-3.2-0.9-3.4-2.5   c-0.2-1.6,0.9-3.2,2.5-3.4C52.8,87.4,58.4,87,64,87c22,0,43.3,6.3,61.6,18.3c1.4,0.9,1.8,2.8,0.9,4.2   C125.9,110.3,125,110.8,124,110.8z"/></g><g><path class="st14" d="M4,110.8c-1,0-1.9-0.5-2.5-1.4c-0.9-1.4-0.5-3.2,0.9-4.2c5.2-3.4,10.7-6.4,16.4-8.9c1.5-0.7,3.3,0,4,1.5   c0.7,1.5,0,3.3-1.5,4c-5.4,2.4-10.6,5.2-15.6,8.4C5.1,110.6,4.6,110.8,4,110.8z"/></g></svg>