<svg  viewBox="0 0 128 128" fill="none" xmlns="http://www.w3.org/2000/svg">
<rect x="72.0224" y="35.3621" width="15" height="67" transform="rotate(45 72.0224 35.3621)" fill="white"/>
<rect x="82.629" y="45.9687" width="15" height="67" transform="rotate(45 82.629 45.9687)" fill="#E4E4E7"/>
<path d="M36.0416 71.397L27.492 79.9061C25.9235 81.4671 25.9205 84.005 27.4852 85.5697L42.3278 100.412C43.8899 101.974 46.4225 101.974 47.9846 100.412L89.7039 58.6929C91.266 57.1308 91.266 54.5982 89.7039 53.0361L74.8576 38.1897C73.2944 36.6265 70.7594 36.6278 69.1978 38.1927L45.9411 61.4975" stroke="#444B54" stroke-width="6"/>
<rect x="89.4635" y="75.9579" width="36" height="20" transform="rotate(45 89.4635 75.9579)" fill="#E4E4E7"/>
<path d="M105.02 114.142L113.505 105.656C115.067 104.094 115.067 101.562 113.505 99.9995L90.8777 77.3721C89.3156 75.81 86.7829 75.81 85.2208 77.3721L76.7355 85.8574C75.1734 87.4195 75.1734 89.9521 76.7355 91.5142L99.3629 114.142C100.925 115.704 103.458 115.704 105.02 114.142Z" stroke="#444B54" stroke-width="6"/>
<rect x="27.5564" y="13.4142" width="36" height="20" transform="rotate(45 27.5564 13.4142)" fill="white"/>
<path d="M43.1127 51.598L51.598 43.1127C53.1601 41.5506 53.1601 39.0179 51.598 37.4558L28.9706 14.8284C27.4085 13.2663 24.8758 13.2663 23.3137 14.8284L14.8284 23.3137C13.2663 24.8758 13.2663 27.4085 14.8284 28.9706L37.4558 51.598C39.0179 53.1601 41.5506 53.1601 43.1127 51.598Z" stroke="#444B54" stroke-width="6"/>
<path d="M91.9353 16.7766L102.376 27.5461L88.735 40.7715L81.1658 27.2176L91.9353 16.7766Z" fill="white"/>
<path d="M102.376 27.5461L112.818 38.3157L101.33 49.4528L88.735 40.7715L102.376 27.5461Z" fill="#E4E4E7"/>
<path d="M112.333 37.8158L93.1161 17.9944C91.7001 16.5339 89.4137 16.3759 87.9912 17.8301C85.8118 20.0579 83.0349 23.5685 82.775 27.195C82.1139 36.4185 93.577 48.2422 102.817 47.867C106.449 47.7195 110.044 45.0526 112.338 42.9433C113.836 41.5664 113.749 39.2763 112.333 37.8158Z" stroke="#444B54" stroke-width="6"/>
<rect x="45.9411" y="57.2548" width="6" height="6" rx="3" transform="rotate(45 45.9411 57.2548)" fill="#444B54"/>
<rect x="36.0416" y="67.1543" width="6" height="6" rx="3" transform="rotate(45 36.0416 67.1543)" fill="#444B54"/>
</svg>
