<?xml version="1.0" ?><svg id="Layer_1" style="enable-background:new 0 0 128 128;" version="1.1" viewBox="0 0 128 128" xml:space="preserve" xmlns="http://www.w3.org/2000/svg" xmlns:xlink="http://www.w3.org/1999/xlink"><style type="text/css">
	.st0{fill:#FFFFFF;}
	.st1{fill:#E4E4E7;}
	.st2{fill:none;stroke:#444B54;stroke-width:6;stroke-linecap:round;stroke-linejoin:round;stroke-miterlimit:10;}
	.st3{fill:#AFAFBC;}
	.st4{fill:#EAD063;}
	.st5{fill:#242426;}
	.st6{fill:#F9DED4;}
	.st7{fill:#D8AC9E;}
	.st8{fill:#FFD0FF;}
	.st9{fill:#6575C1;}
	.st10{fill:#786F74;}
	.st11{fill:#9B9BA5;}
	.st12{fill:#FFD2EA;}
	.st13{fill:#B78BA4;}
	.st14{fill:#444B54;}
	.st15{fill:#5D5D8C;}
	.st16{fill:none;stroke:#FFFFFF;stroke-width:6;stroke-linecap:round;stroke-linejoin:round;stroke-miterlimit:10;}
</style><g><g><path class="st14" d="M122.3,66.7c-1.4,0-2.7-1-3-2.5c-3.1-18.6-17.5-33.8-35.9-38c-1.6-0.4-2.6-2-2.3-3.6s2-2.6,3.6-2.3    c21,4.8,36.9,21.6,40.5,42.9c0.3,1.6-0.8,3.2-2.5,3.5C122.6,66.7,122.5,66.7,122.3,66.7z"/></g><g><path class="st14" d="M38,34.1c-0.9,0-1.8-0.4-2.4-1.1c-1-1.3-0.8-3.2,0.5-4.2C44.1,22.5,54,19,64,19c1.7,0,3,1.3,3,3s-1.3,3-3,3    c-8.7,0-17.3,3-24.1,8.4C39.3,33.9,38.7,34.1,38,34.1z"/></g><g><path class="st0" d="M107,111c-1.8,0-3.4,0.3-5,0.9c-0.1-5.5-4.5-9.9-10-9.9c-0.6,0-1.2,0.1-1.8,0.2C92,99.2,93,95.7,93,92    c0-11-9-20-20-20c-1.8,0-3.4,0.2-5.1,0.7C66.7,72.2,65.4,72,64,72c-6.3,0-11.5,4.9-12,11.1c-0.7-0.1-1.4-0.1-2-0.1    c-8.8,0-16,6.7-16.9,15.2c-1-0.1-2-0.2-3.1-0.2c-12.2,0-22,9.8-22,22c0,1.4,0.1,2.7,0.4,4h113.5C120.9,116.7,114.6,111,107,111z"/></g></g><g><g><path class="st14" d="M6.4,127c-1.4,0-2.7-1-2.9-2.5C3.1,123,3,121.5,3,120c0-14.9,13.2-26.9,28.5-24.8c1.6,0.2,2.8,1.7,2.6,3.4    s-1.8,2.8-3.4,2.6c-0.9-0.1-1.8-0.2-2.7-0.2c-10.5,0-19,8.5-19,19c0,1.1,0.1,2.3,0.3,3.5c0.3,1.6-0.8,3.2-2.4,3.5    C6.7,127,6.5,127,6.4,127z"/></g><g><path class="st14" d="M92.2,105.2c-0.5,0-1-0.1-1.5-0.4c-1.4-0.8-1.9-2.7-1.1-4.1C91.2,98,92,95,92,92c0-1.7,1.3-3,3-3s3,1.3,3,3    c0,4.1-1.1,8.1-3.2,11.7C94.2,104.6,93.2,105.2,92.2,105.2z"/></g><g><path class="st14" d="M123.8,127c-1.5,0-2.8-1.1-3-2.6c-0.8-5.9-5.9-10.4-11.9-10.4c-1.3,0-2.7,0.2-4,0.7    c-1.6,0.6-3.3-0.3-3.8-1.8c-0.6-1.6,0.3-3.3,1.8-3.8c2-0.7,4-1,6-1c9,0,16.6,6.7,17.8,15.6c0.2,1.6-0.9,3.2-2.6,3.4    C124.1,127,124,127,123.8,127z"/></g></g><g><path class="st1" d="M43,52.8v50c0,11.6,9.4,21,21,21h0c11.6,0,21.1-9.4,21.1-21v-50c0-1.7-1.3-3-3-3H46C44.3,49.8,43,51.2,43,52.8   z"/></g><g><path class="st0" d="M55,84.8c-1.7,0-3-1.3-3-3v-20c0-1.7,1.3-3,3-3s3,1.3,3,3v20C58,83.4,56.6,84.8,55,84.8z"/></g><g><path class="st0" d="M55,114.8c-1.7,0-3-1.3-3-3v-10c0-1.7,1.3-3,3-3s3,1.3,3,3v10C58,113.4,56.6,114.8,55,114.8z"/></g><g><path class="st14" d="M43,117c-1.7,0-3-1.3-3-3V50c0-1.7,1.3-3,3-3h42c1.7,0,3,1.3,3,3v34c0,1.7-1.3,3-3,3s-3-1.3-3-3V53H46v61   C46,115.7,44.7,117,43,117z"/></g><g><path class="st14" d="M9,35.2c-0.8,0-1.5-0.3-2.1-0.9l-5-5c-1.2-1.2-1.2-3.1,0-4.2C3,24,4.9,24,6.1,25.1l5,5c1.2,1.2,1.2,3.1,0,4.2   C10.5,34.9,9.8,35.2,9,35.2z"/></g><g><path class="st14" d="M29,55c-0.8,0-1.5-0.3-2.1-0.9l-9.5-9.4c-1.2-1.2-1.2-3.1,0-4.2s3.1-1.2,4.2,0l9.5,9.4c1.2,1.2,1.2,3.1,0,4.2   C30.5,54.7,29.7,55,29,55z"/></g><g><path class="st14" d="M27.9,78.1c-0.3,0-0.6,0-0.9-0.1L3.1,70.1c-1.6-0.5-2.4-2.2-1.9-3.8s2.2-2.4,3.8-1.9l23.9,7.8   c1.6,0.5,2.4,2.2,1.9,3.8C30.4,77.3,29.2,78.1,27.9,78.1z"/></g><g><path class="st14" d="M111.3,42.9c-0.8,0-1.5-0.3-2.1-0.9c-1.2-1.2-1.2-3.1,0-4.2l12.7-12.6c1.2-1.2,3.1-1.2,4.2,0   c1.2,1.2,1.2,3.1,0,4.2L113.4,42C112.8,42.6,112,42.9,111.3,42.9z"/></g><g><path class="st14" d="M100.1,78.1c-1.3,0-2.4-0.8-2.9-2.1c-0.5-1.6,0.3-3.3,1.9-3.8l8.7-2.9c1.6-0.5,3.3,0.3,3.8,1.9   c0.5,1.6-0.3,3.3-1.9,3.8l-8.7,2.9C100.7,78,100.4,78.1,100.1,78.1z"/></g></svg>