<?xml version="1.0" ?><svg id="Layer_1" style="enable-background:new 0 0 128 128;" version="1.1" viewBox="0 0 128 128" xml:space="preserve" xmlns="http://www.w3.org/2000/svg" xmlns:xlink="http://www.w3.org/1999/xlink"><style type="text/css">
	.st0{fill:#FFFFFF;}
	.st1{fill:#E4E4E7;}
	.st2{fill:none;stroke:#444B54;stroke-width:6;stroke-linecap:round;stroke-linejoin:round;stroke-miterlimit:10;}
	.st3{fill:#AFAFBC;}
	.st4{fill:#EAD063;}
	.st5{fill:#242426;}
	.st6{fill:#F9DED4;}
	.st7{fill:#D8AC9E;}
	.st8{fill:#FFD0FF;}
	.st9{fill:#6575C1;}
	.st10{fill:#786F74;}
	.st11{fill:#9B9BA5;}
	.st12{fill:#FFD2EA;}
	.st13{fill:#B78BA4;}
	.st14{fill:#444B54;}
	.st15{fill:#5D5D8C;}
	.st16{fill:none;stroke:#FFFFFF;stroke-width:6;stroke-linecap:round;stroke-linejoin:round;stroke-miterlimit:10;}
</style><g><polygon class="st1" points="59,3.8 59,77.8 71,77.9 71,3.8  "/></g><g><path class="st14" d="M65,107.8c-1.7,0-3-1.3-3-3V90.8c0-1.7,1.3-3,3-3s3,1.3,3,3v13.9C68,106.4,66.6,107.8,65,107.8z"/></g><g><path class="st14" d="M65,127.8c-1.7,0-3-1.3-3-3v-4.9c0-1.7,1.3-3,3-3s3,1.3,3,3v4.9C68,126.4,66.6,127.8,65,127.8z"/></g><path class="st14" d="M92.3,85.1L74,75.9V3.8c0-1.7-1.3-3-3-3H59c-1.7,0-3,1.3-3,3v72.1l-18.3,9.2c-1.5,0.7-2.1,2.5-1.3,4  c0.5,1.1,1.6,1.7,2.7,1.7c0.5,0,0.9-0.1,1.3-0.3l20-10c1-0.5,1.7-1.5,1.7-2.7V6.8H68v71.1c0,1.4,1,2.6,2.3,2.9l19.3,9.7  c0.4,0.2,0.9,0.3,1.3,0.3c1.1,0,2.2-0.6,2.7-1.7C94.4,87.6,93.8,85.8,92.3,85.1z"/></svg>